<svg width="23" height="15" viewBox="0 0 23 15" fill="none" xmlns="http://www.w3.org/2000/svg">
<path d="M11.25 3.125C12.474 3.125 13.5026 3.55469 14.3359 4.41406C15.1953 5.2474 15.625 6.27604 15.625 7.5C15.625 8.69792 15.1953 9.72656 14.3359 10.5859C13.5026 11.4193 12.474 11.8359 11.25 11.8359C10.0521 11.8359 9.02344 11.4193 8.16406 10.5859C7.33073 9.72656 6.91406 8.69792 6.91406 7.5C6.91406 7.08333 6.96615 6.67969 7.07031 6.28906C7.40885 6.47135 7.76042 6.5625 8.125 6.5625C8.72396 6.5625 9.23177 6.35417 9.64844 5.9375C10.0911 5.49479 10.3125 4.97396 10.3125 4.375C10.3125 4.01042 10.2214 3.65885 10.0391 3.32031C10.4297 3.1901 10.8333 3.125 11.25 3.125ZM22.3828 6.91406C22.4609 7.09635 22.5 7.29167 22.5 7.5C22.5 7.70833 22.4609 7.90365 22.3828 8.08594C21.2891 10.1693 19.7526 11.849 17.7734 13.125C15.7943 14.375 13.6198 15 11.25 15C9.6875 15 8.17708 14.7135 6.71875 14.1406C5.28646 13.5417 4.01042 12.7344 2.89062 11.7188C1.77083 10.6771 0.846354 9.46615 0.117188 8.08594C0.0390625 7.90365 0 7.70833 0 7.5C0 7.29167 0.0390625 7.09635 0.117188 6.91406C1.21094 4.83073 2.7474 3.16406 4.72656 1.91406C6.70573 0.638021 8.88021 0 11.25 0C13.6198 0 15.7943 0.638021 17.7734 1.91406C19.7526 3.16406 21.2891 4.83073 22.3828 6.91406ZM11.25 13.125C13.1771 13.125 14.9609 12.6302 16.6016 11.6406C18.2682 10.625 19.5833 9.24479 20.5469 7.5C19.5833 5.75521 18.2682 4.38802 16.6016 3.39844C14.9609 2.38281 13.1771 1.875 11.25 1.875C9.32292 1.875 7.52604 2.38281 5.85938 3.39844C4.21875 4.38802 2.91667 5.75521 1.95312 7.5C2.57812 8.64583 3.3724 9.64844 4.33594 10.5078C5.29948 11.3411 6.36719 11.9922 7.53906 12.4609C8.73698 12.9036 9.97396 13.125 11.25 13.125Z" fill="#0E6CDD"/>
</svg>
