<svg width="22" height="22" viewBox="0 0 22 22" fill="none" xmlns="http://www.w3.org/2000/svg">
<path d="M10.6667 0.426758C4.77995 0.426758 0.0104179 5.23926 0.0104179 11.083C0.0104179 16.9697 4.77995 21.7393 10.6667 21.7393C16.5104 21.7393 21.3229 16.9697 21.3229 11.083C21.3229 5.23926 16.5104 0.426758 10.6667 0.426758ZM10.6667 19.6768C5.89714 19.6768 2.07292 15.8525 2.07292 11.083C2.07292 6.35645 5.89714 2.48926 10.6667 2.48926C15.3932 2.48926 19.2604 6.35645 19.2604 11.083C19.2604 15.8525 15.3932 19.6768 10.6667 19.6768ZM15.2643 8.71973C15.2643 6.57129 12.987 4.89551 10.8815 4.89551C8.86198 4.89551 7.57292 5.75488 6.58464 7.25879C6.41276 7.47363 6.45573 7.77441 6.67057 7.94629L7.8737 8.84863C8.08854 9.02051 8.43229 8.97754 8.60417 8.7627C9.2487 7.94629 9.72136 7.47363 10.7096 7.47363C11.4831 7.47363 12.4284 7.94629 12.4284 8.71973C12.4284 9.27832 11.9557 9.53613 11.1823 9.96582C10.3229 10.4814 9.16276 11.083 9.16276 12.6299V12.9736C9.16276 13.2744 9.37761 13.4893 9.67839 13.4893H11.612C11.9128 13.4893 12.1276 13.2744 12.1276 12.9736V12.7158C12.1276 11.6416 15.2643 11.5986 15.2643 8.71973ZM12.4714 15.8955C12.4714 14.9072 11.6549 14.0908 10.6667 14.0908C9.63542 14.0908 8.86198 14.9072 8.86198 15.8955C8.86198 16.9268 9.63542 17.7002 10.6667 17.7002C11.6549 17.7002 12.4714 16.9268 12.4714 15.8955Z" fill="white"/>
</svg>
