<svg width="22" height="22" viewBox="0 0 22 22" fill="none" xmlns="http://www.w3.org/2000/svg">
<path d="M19.0885 10.2666L20.4635 9.49316C20.8503 9.27832 21.0651 8.80566 20.9362 8.33301C20.4635 6.52832 19.4753 4.89551 18.1862 3.56348C17.8424 3.2627 17.3268 3.17676 16.9401 3.3916L15.5651 4.20801C15.1354 3.86426 14.6628 3.60645 14.1471 3.3916V1.80176C14.1471 1.3291 13.8464 0.942383 13.3737 0.813477C11.612 0.34082 9.67838 0.34082 7.91667 0.813477C7.44401 0.942383 7.14323 1.3291 7.14323 1.80176V3.3916C6.6276 3.60645 6.15495 3.86426 5.72526 4.20801L4.35026 3.3916C3.96354 3.17676 3.44792 3.2627 3.10417 3.56348C1.8151 4.89551 0.826821 6.52832 0.354165 8.33301C0.225259 8.80566 0.440103 9.27832 0.826821 9.49316L2.20182 10.2666C2.15885 10.5674 2.15885 10.8252 2.15885 11.126C2.15885 11.3838 2.15885 11.6416 2.20182 11.8994L0.826821 12.7158C0.440103 12.9307 0.225259 13.4033 0.354165 13.876C0.826821 15.6807 1.8151 17.3135 3.10417 18.6455C3.44792 18.9463 3.96354 19.0322 4.35026 18.8174L5.72526 18.001C6.15495 18.3447 6.6276 18.6025 7.14323 18.8174V20.4072C7.14323 20.8799 7.44401 21.2666 7.91667 21.3955C9.67838 21.8682 11.612 21.8682 13.3737 21.3955C13.8464 21.2666 14.1471 20.8799 14.1471 20.4072V18.8174C14.6628 18.6025 15.1354 18.3447 15.5651 18.001L16.9401 18.8174C17.3268 19.0322 17.8424 18.9463 18.1862 18.6455C19.4753 17.3135 20.4635 15.6807 20.9362 13.876C21.0651 13.4033 20.8503 12.9307 20.4635 12.7158L19.0885 11.8994C19.1315 11.3838 19.1315 10.8252 19.0885 10.2666ZM16.8112 13.0166L18.7018 14.0908C18.3581 14.9932 17.8854 15.8525 17.2409 16.583L15.3503 15.5088C13.9753 16.6689 13.8034 16.7979 12.0846 17.3994V19.5908C11.612 19.6768 11.1393 19.7197 10.6237 19.7197C10.151 19.7197 9.67838 19.6768 9.20573 19.5908V17.3994C7.48698 16.7979 7.27213 16.6689 5.9401 15.5088L4.04948 16.583C3.40495 15.8525 2.93229 14.9932 2.58854 14.0908L4.47917 13.0166C4.13542 11.2119 4.13542 10.9971 4.47917 9.19238L2.58854 8.11816C2.93229 7.21582 3.40495 6.35645 4.04948 5.62598L5.9401 6.7002C7.3151 5.54004 7.48698 5.41113 9.20573 4.80957V2.61816C9.67838 2.53223 10.151 2.48926 10.6667 2.48926C11.1393 2.48926 11.612 2.53223 12.0846 2.61816V4.80957C13.8034 5.41113 14.0182 5.54004 15.3503 6.7002L17.2409 5.62598C17.8854 6.35645 18.3581 7.21582 18.7018 8.11816L16.8112 9.19238C17.1549 10.9971 17.1549 11.2119 16.8112 13.0166ZM10.6667 6.95801C8.38932 6.95801 6.54167 8.84863 6.54167 11.083C6.54167 13.3604 8.38932 15.208 10.6667 15.208C12.901 15.208 14.7917 13.3604 14.7917 11.083C14.7917 8.84863 12.901 6.95801 10.6667 6.95801ZM10.6667 13.1455C9.50651 13.1455 8.60417 12.2432 8.60417 11.083C8.60417 9.96582 9.50651 9.02051 10.6667 9.02051C11.7839 9.02051 12.7292 9.96582 12.7292 11.083C12.7292 12.2432 11.7839 13.1455 10.6667 13.1455Z" fill="white"/>
</svg>
