<svg width="20" height="23" viewBox="0 0 20 23" fill="none" xmlns="http://www.w3.org/2000/svg">
<path d="M13.8242 13.1455C12.5781 13.1455 12.0195 13.833 10 13.833C7.9375 13.833 7.37891 13.1455 6.13281 13.1455C2.95312 13.1455 0.375 15.7666 0.375 18.9463V20.0205C0.375 21.1807 1.27734 22.083 2.4375 22.083H17.5625C18.6797 22.083 19.625 21.1807 19.625 20.0205V18.9463C19.625 15.7666 17.0039 13.1455 13.8242 13.1455ZM17.5625 20.0205H2.4375V18.9463C2.4375 16.8838 4.07031 15.208 6.13281 15.208C6.77734 15.208 7.76562 15.8955 10 15.8955C12.1914 15.8955 13.1797 15.208 13.8242 15.208C15.8867 15.208 17.5625 16.8838 17.5625 18.9463V20.0205ZM10 12.458C13.3945 12.458 16.1875 9.70801 16.1875 6.27051C16.1875 2.87598 13.3945 0.0830078 10 0.0830078C6.5625 0.0830078 3.8125 2.87598 3.8125 6.27051C3.8125 9.70801 6.5625 12.458 10 12.458ZM10 2.14551C12.2344 2.14551 14.125 4.03613 14.125 6.27051C14.125 8.54785 12.2344 10.3955 10 10.3955C7.72266 10.3955 5.875 8.54785 5.875 6.27051C5.875 4.03613 7.72266 2.14551 10 2.14551Z" fill="white"/>
</svg>
