<svg width="32" height="32" viewBox="0 0 32 32"  xmlns="http://www.w3.org/2000/svg">
<path d="M25.5716 20.3477C24.7552 19.4453 23.1654 18.1133 23.1654 13.6875C23.1654 10.3789 20.8451 7.71484 17.6654 7.02734V6.125C17.6654 5.39453 17.0638 4.75 16.3333 4.75C15.5599 4.75 14.9583 5.39453 14.9583 6.125V7.02734C11.7786 7.71484 9.45833 10.3789 9.45833 13.6875C9.45833 18.1133 7.86849 19.4453 7.05208 20.3477C6.79427 20.6055 6.66537 20.9492 6.70833 21.25C6.70833 21.9805 7.22396 22.625 8.08333 22.625H24.5404C25.3997 22.625 25.9154 21.9805 25.9583 21.25C25.9583 20.9492 25.8294 20.6055 25.5716 20.3477ZM9.58724 20.5625C10.4896 19.4023 11.4779 17.3828 11.5208 13.7305C11.5208 13.7305 11.5208 13.7305 11.5208 13.6875C11.5208 11.0664 13.6693 8.875 16.3333 8.875C18.9544 8.875 21.1458 11.0664 21.1458 13.6875C21.1458 13.7305 21.1029 13.7305 21.1029 13.7305C21.1458 17.3828 22.1341 19.4023 23.0365 20.5625H9.58724ZM16.3333 26.75C17.8372 26.75 19.0404 25.5469 19.0404 24H13.5833C13.5833 25.5469 14.7865 26.75 16.3333 26.75Z"/>
</svg>
