<svg width="20" height="23" viewBox="0 0 20 23" fill="none" xmlns="http://www.w3.org/2000/svg">
<path d="M19.5716 16.3477C18.7552 15.4453 17.1654 14.1133 17.1654 9.6875C17.1654 6.37891 14.8451 3.71484 11.6654 3.02734V2.125C11.6654 1.39453 11.0638 0.75 10.3333 0.75C9.5599 0.75 8.95833 1.39453 8.95833 2.125V3.02734C5.77865 3.71484 3.45833 6.37891 3.45833 9.6875C3.45833 14.1133 1.86849 15.4453 1.05208 16.3477C0.794272 16.6055 0.665366 16.9492 0.708335 17.25C0.708335 17.9805 1.22396 18.625 2.08333 18.625H18.5404C19.3997 18.625 19.9154 17.9805 19.9583 17.25C19.9583 16.9492 19.8294 16.6055 19.5716 16.3477ZM3.58724 16.5625C4.48958 15.4023 5.47787 13.3828 5.52083 9.73047C5.52083 9.73047 5.52083 9.73047 5.52083 9.6875C5.52083 7.06641 7.66927 4.875 10.3333 4.875C12.9544 4.875 15.1458 7.06641 15.1458 9.6875C15.1458 9.73047 15.1029 9.73047 15.1029 9.73047C15.1458 13.3828 16.1341 15.4023 17.0365 16.5625H3.58724ZM10.3333 22.75C11.8372 22.75 13.0404 21.5469 13.0404 20H7.58333C7.58333 21.5469 8.78646 22.75 10.3333 22.75Z" fill="white"/>
</svg>
