<svg width="32" height="32" viewBox="0 0 32 32"  xmlns="http://www.w3.org/2000/svg">
<path d="M29.2188 14.625L26.5 12.375V7.875C26.5 7.6875 26.3125 7.5 26.125 7.5H24.625C24.3906 7.54688 24.25 7.6875 24.25 7.875V10.5469L17.6406 5.10938C17.2656 4.78125 16.5156 4.54688 16 4.54688C15.4375 4.54688 14.6875 4.78125 14.3125 5.10938L2.73438 14.625C2.59375 14.7656 2.5 15 2.5 15.1875C2.5 15.3281 2.54688 15.5625 2.64062 15.6562L3.15625 16.2656C3.25 16.4062 3.53125 16.5 3.71875 16.5C3.85938 16.5 4.09375 16.4531 4.1875 16.3594L5.5 15.2812V24C5.5 24.8438 6.15625 25.5 7 25.5H13C13.7969 25.5 14.4531 24.8438 14.5 24V19.125H17.5V24C17.5 24.8438 18.1562 25.5 19 25.5H25C25.7969 25.5 26.4531 24.8438 26.5 24.0469V15.2812L27.7656 16.3594C27.8594 16.4531 28.0938 16.5469 28.2344 16.5469C28.4219 16.5469 28.7031 16.4062 28.8438 16.2656L29.3125 15.6562C29.4062 15.5625 29.5 15.3281 29.5 15.1875C29.5 15 29.3594 14.7656 29.2188 14.625ZM24.2031 23.25H19.75V18.375C19.7031 17.5781 19.0469 16.9219 18.25 16.875H13.75C12.9062 16.9219 12.25 17.5781 12.25 18.375V23.25H7.75V13.4531L16 6.65625L24.25 13.4531L24.2031 23.25Z"/>
</svg>
