<svg width="23" height="25" viewBox="0 0 23 25" fill="none" xmlns="http://www.w3.org/2000/svg">
<path d="M11.25 8.125C12.474 8.125 13.5026 8.55469 14.3359 9.41406C15.1953 10.2474 15.625 11.276 15.625 12.5C15.625 13.6979 15.1953 14.7266 14.3359 15.5859C13.5026 16.4193 12.474 16.8359 11.25 16.8359C10.0521 16.8359 9.02344 16.4193 8.16406 15.5859C7.33073 14.7266 6.91406 13.6979 6.91406 12.5C6.91406 12.0833 6.96615 11.6797 7.07031 11.2891C7.40885 11.4714 7.76042 11.5625 8.125 11.5625C8.72396 11.5625 9.23177 11.3542 9.64844 10.9375C10.0911 10.4948 10.3125 9.97396 10.3125 9.375C10.3125 9.01042 10.2214 8.65885 10.0391 8.32031C10.4297 8.1901 10.8333 8.125 11.25 8.125ZM22.3828 11.9141C22.4609 12.0964 22.5 12.2917 22.5 12.5C22.5 12.7083 22.4609 12.9036 22.3828 13.0859C21.2891 15.1693 19.7526 16.849 17.7734 18.125C15.7943 19.375 13.6198 20 11.25 20C9.6875 20 8.17708 19.7135 6.71875 19.1406C5.28646 18.5417 4.01042 17.7344 2.89062 16.7188C1.77083 15.6771 0.846354 14.4661 0.117188 13.0859C0.0390625 12.9036 0 12.7083 0 12.5C0 12.2917 0.0390625 12.0964 0.117188 11.9141C1.21094 9.83073 2.7474 8.16406 4.72656 6.91406C6.70573 5.63802 8.88021 5 11.25 5C13.6198 5 15.7943 5.63802 17.7734 6.91406C19.7526 8.16406 21.2891 9.83073 22.3828 11.9141ZM11.25 18.125C13.1771 18.125 14.9609 17.6302 16.6016 16.6406C18.2682 15.625 19.5833 14.2448 20.5469 12.5C19.5833 10.7552 18.2682 9.38802 16.6016 8.39844C14.9609 7.38281 13.1771 6.875 11.25 6.875C9.32292 6.875 7.52604 7.38281 5.85938 8.39844C4.21875 9.38802 2.91667 10.7552 1.95312 12.5C2.57812 13.6458 3.3724 14.6484 4.33594 15.5078C5.29948 16.3411 6.36719 16.9922 7.53906 17.4609C8.73698 17.9036 9.97396 18.125 11.25 18.125Z" fill="#0E6CDD"/>
<path d="M1 1L19.5974 23.3168" stroke="#0E6CDD" stroke-width="2" stroke-linecap="round"/>
</svg>
