<svg width="32" height="32" viewBox="0 0 32 32" xmlns="http://www.w3.org/2000/svg">
<path d="M27.8125 24.9844L22.1406 19.3125C22 19.2188 21.8594 19.125 21.7188 19.125H21.1094C22.5625 17.4375 23.5 15.1875 23.5 12.75C23.5 7.40625 19.0938 3 13.75 3C8.35938 3 4 7.40625 4 12.75C4 18.1406 8.35938 22.5 13.75 22.5C16.1875 22.5 18.3906 21.6094 20.125 20.1562V20.7656C20.125 20.9062 20.1719 21.0469 20.2656 21.1875L25.9375 26.8594C26.1719 27.0938 26.5469 27.0938 26.7344 26.8594L27.8125 25.7812C28.0469 25.5938 28.0469 25.2188 27.8125 24.9844ZM13.75 20.25C9.57812 20.25 6.25 16.9219 6.25 12.75C6.25 8.625 9.57812 5.25 13.75 5.25C17.875 5.25 21.25 8.625 21.25 12.75C21.25 16.9219 17.875 20.25 13.75 20.25Z"/>
</svg>
