<svg width="32" height="32" viewBox="0 0 32 32"  xmlns="http://www.w3.org/2000/svg">
<path d="M24.0885 15.2666L25.4635 14.4932C25.8503 14.2783 26.0651 13.8057 25.9362 13.333C25.4635 11.5283 24.4753 9.89551 23.1862 8.56348C22.8424 8.2627 22.3268 8.17676 21.9401 8.3916L20.5651 9.20801C20.2214 8.9502 19.5768 8.56348 19.1471 8.3916V6.80176C19.1471 6.37207 18.8034 5.89941 18.3737 5.81348C16.612 5.34082 14.6784 5.34082 12.9167 5.81348C12.444 5.94238 12.1432 6.3291 12.1432 6.80176V8.3916C11.7135 8.56348 11.069 8.9502 10.7253 9.20801L9.35026 8.3916C8.96354 8.17676 8.44792 8.2627 8.10417 8.56348C6.8151 9.89551 5.82682 11.5283 5.35417 13.333C5.22526 13.8057 5.4401 14.2783 5.82682 14.4932L7.20182 15.2666C7.15885 15.5244 7.15885 15.8682 7.15885 16.083C7.15885 16.3408 7.15885 16.6846 7.20182 16.8994L5.82682 17.7158C5.4401 17.9307 5.22526 18.4033 5.35417 18.876C5.82682 20.6807 6.8151 22.3135 8.10417 23.6455C8.44792 23.9463 8.96354 24.0322 9.35026 23.8174L10.7253 23.001C11.069 23.2588 11.7135 23.6455 12.1432 23.8174V25.4072C12.1432 25.8369 12.487 26.3096 12.9167 26.3955C14.6784 26.8682 16.612 26.8682 18.3737 26.3955C18.8464 26.2666 19.1471 25.8799 19.1471 25.4072V23.8174C19.5768 23.6455 20.2214 23.2588 20.5651 23.001L21.9401 23.8174C22.3268 24.0322 22.8424 23.9463 23.1862 23.6455C24.4753 22.3135 25.4635 20.6807 25.9362 18.876C26.0651 18.4033 25.8503 17.9307 25.4635 17.7158L24.0885 16.8994C24.1315 16.3838 24.1315 15.8252 24.0885 15.2666ZM21.8112 18.0166L23.7018 19.0908C23.444 19.8643 22.7565 20.9814 22.2409 21.583L20.3503 20.5088C18.9753 21.6689 18.8034 21.7979 17.0846 22.3994V24.5908C16.6979 24.6338 16.0534 24.7197 15.6667 24.7197C15.237 24.7197 14.5924 24.6338 14.2057 24.5908V22.3994C12.487 21.7979 12.2721 21.6689 10.9401 20.5088L9.04948 21.583C8.53385 20.9814 7.84635 19.8643 7.58854 19.0908L9.47917 18.0166C9.13542 16.2119 9.13542 15.9971 9.47917 14.1924L7.58854 13.1182C7.93229 12.2158 8.40495 11.3564 9.04948 10.626L10.9401 11.7002C12.3151 10.54 12.487 10.4111 14.2057 9.80957V7.61816C14.5924 7.5752 15.237 7.48926 15.6667 7.48926C16.0534 7.48926 16.6979 7.5752 17.0846 7.61816V9.80957C18.8034 10.4111 19.0182 10.54 20.3503 11.7002L22.2409 10.626C22.7565 11.2275 23.444 12.3447 23.7018 13.1182L21.8112 14.1924C22.1549 15.9971 22.1549 16.2119 21.8112 18.0166ZM15.6667 11.958C13.3893 11.958 11.5417 13.8486 11.5417 16.083C11.5417 18.3604 13.3893 20.208 15.6667 20.208C17.901 20.208 19.7917 18.3604 19.7917 16.083C19.7917 13.8486 17.901 11.958 15.6667 11.958ZM15.6667 18.1455C14.5065 18.1455 13.6042 17.2432 13.6042 16.083C13.6042 14.9658 14.5065 14.0205 15.6667 14.0205C16.7839 14.0205 17.7292 14.9658 17.7292 16.083C17.7292 17.2432 16.7839 18.1455 15.6667 18.1455Z"/>
</svg>
