<svg width="32" height="32" viewBox="0 0 32 32"  xmlns="http://www.w3.org/2000/svg">
<path d="M15.6667 5.42676C9.77995 5.42676 5.01042 10.2393 5.01042 16.083C5.01042 21.9697 9.77995 26.7393 15.6667 26.7393C21.5104 26.7393 26.3229 21.9697 26.3229 16.083C26.3229 10.2393 21.5104 5.42676 15.6667 5.42676ZM15.6667 24.6768C10.8971 24.6768 7.07292 20.8525 7.07292 16.083C7.07292 11.3564 10.8971 7.48926 15.6667 7.48926C20.3932 7.48926 24.2604 11.3564 24.2604 16.083C24.2604 20.8525 20.3932 24.6768 15.6667 24.6768ZM20.2643 13.7197C20.2643 11.5713 17.987 9.89551 15.8815 9.89551C13.862 9.89551 12.5729 10.7549 11.5846 12.2588C11.4128 12.4736 11.4557 12.7744 11.6706 12.9463L12.8737 13.8486C13.0885 14.0205 13.4323 13.9775 13.6042 13.7627C14.2487 12.9463 14.7214 12.4736 15.7096 12.4736C16.4831 12.4736 17.4284 12.9463 17.4284 13.7197C17.4284 14.2783 16.9557 14.5361 16.1823 14.9658C15.3229 15.4814 14.1628 16.083 14.1628 17.6299V17.9736C14.1628 18.2744 14.3776 18.4893 14.6784 18.4893H16.612C16.9128 18.4893 17.1276 18.2744 17.1276 17.9736V17.7158C17.1276 16.6416 20.2643 16.5986 20.2643 13.7197ZM17.4714 20.8955C17.4714 19.9072 16.6549 19.0908 15.6667 19.0908C14.6354 19.0908 13.862 19.9072 13.862 20.8955C13.862 21.9268 14.6354 22.7002 15.6667 22.7002C16.6549 22.7002 17.4714 21.9268 17.4714 20.8955Z"/>
</svg>
