<svg width="32" height="32" viewBox="0 0 32 32"  xmlns="http://www.w3.org/2000/svg">
<g clip-path="url(#clip0_31_354)">
<path d="M19.8242 19.1455C18.5781 19.1455 18.0195 19.833 16 19.833C13.9375 19.833 13.3789 19.1455 12.1328 19.1455C8.95312 19.1455 6.375 21.7666 6.375 24.9463V26.0205C6.375 27.1807 7.27734 28.083 8.4375 28.083H23.5625C24.6797 28.083 25.625 27.1807 25.625 26.0205V24.9463C25.625 21.7666 23.0039 19.1455 19.8242 19.1455ZM23.5625 26.0205H8.4375V24.9463C8.4375 22.8838 10.0703 21.208 12.1328 21.208C12.7773 21.208 13.7656 21.8955 16 21.8955C18.1914 21.8955 19.1797 21.208 19.8242 21.208C21.8867 21.208 23.5625 22.8838 23.5625 24.9463V26.0205ZM16 18.458C19.3945 18.458 22.1875 15.708 22.1875 12.2705C22.1875 8.87598 19.3945 6.08301 16 6.08301C12.5625 6.08301 9.8125 8.87598 9.8125 12.2705C9.8125 15.708 12.5625 18.458 16 18.458ZM16 8.14551C18.2344 8.14551 20.125 10.0361 20.125 12.2705C20.125 14.5479 18.2344 16.3955 16 16.3955C13.7227 16.3955 11.875 14.5479 11.875 12.2705C11.875 10.0361 13.7227 8.14551 16 8.14551Z" />
</g>
<defs>
<clipPath id="clip0_31_354">
<rect width="32" height="32" />
</clipPath>
</defs>
</svg>
